<svg width="50" height="50" viewBox="0 0 50 50" fill="none" xmlns="http://www.w3.org/2000/svg">
<mask id="path-1-outside-1_401_53" maskUnits="userSpaceOnUse" x="8" y="10" width="37" height="29" fill="black">
<rect fill="white" x="8" y="10" width="37" height="29"/>
<path d="M9.28516 12.1777C9.28516 11.873 9.37891 11.6094 9.56641 11.3867C9.76562 11.1641 10 11.0527 10.2695 11.0527H12.7305C13 11.0527 13.2285 11.1641 13.416 11.3867C13.6035 11.6094 13.6973 11.873 13.6973 12.1777V36.875C13.6973 37.1797 13.5977 37.4434 13.3984 37.666C13.2109 37.8887 12.9824 38 12.7129 38H10.252C9.98242 38 9.75391 37.8887 9.56641 37.666C9.37891 37.4434 9.28516 37.1797 9.28516 36.875V12.1777ZM19.7441 38C19.4043 38 19.1465 37.8945 18.9707 37.6836C18.7949 37.4609 18.707 37.2734 18.707 37.1211C18.707 36.957 18.7246 36.8281 18.7598 36.7344L27.6367 12.8633C28.0352 11.8203 28.6738 11.2344 29.5527 11.1055C29.8574 11.0703 30.2207 11.0527 30.6426 11.0527H30.9414C31.7383 11.0527 32.2891 11.1523 32.5938 11.3516C33.0859 11.6562 33.4668 12.1426 33.7363 12.8105L43.2812 36.752C43.3164 36.8457 43.334 36.9805 43.334 37.1562C43.334 37.3203 43.2637 37.502 43.123 37.7012C42.9824 37.9004 42.748 38 42.4199 38H39.959C39.4199 38 39.0449 37.748 38.834 37.2441L36.6543 31.5312H25.1055L23.084 37.2441C22.9199 37.748 22.5625 38 22.0117 38H19.7441ZM35.1777 27.7344L30.9766 16.3086C30.9414 16.1914 30.8711 16.1328 30.7656 16.1328C30.6602 16.1328 30.5898 16.1914 30.5547 16.3086L26.4766 27.7344H35.1777Z"/>
</mask>
<path d="M9.28516 12.1777C9.28516 11.873 9.37891 11.6094 9.56641 11.3867C9.76562 11.1641 10 11.0527 10.2695 11.0527H12.7305C13 11.0527 13.2285 11.1641 13.416 11.3867C13.6035 11.6094 13.6973 11.873 13.6973 12.1777V36.875C13.6973 37.1797 13.5977 37.4434 13.3984 37.666C13.2109 37.8887 12.9824 38 12.7129 38H10.252C9.98242 38 9.75391 37.8887 9.56641 37.666C9.37891 37.4434 9.28516 37.1797 9.28516 36.875V12.1777ZM19.7441 38C19.4043 38 19.1465 37.8945 18.9707 37.6836C18.7949 37.4609 18.707 37.2734 18.707 37.1211C18.707 36.957 18.7246 36.8281 18.7598 36.7344L27.6367 12.8633C28.0352 11.8203 28.6738 11.2344 29.5527 11.1055C29.8574 11.0703 30.2207 11.0527 30.6426 11.0527H30.9414C31.7383 11.0527 32.2891 11.1523 32.5938 11.3516C33.0859 11.6562 33.4668 12.1426 33.7363 12.8105L43.2812 36.752C43.3164 36.8457 43.334 36.9805 43.334 37.1562C43.334 37.3203 43.2637 37.502 43.123 37.7012C42.9824 37.9004 42.748 38 42.4199 38H39.959C39.4199 38 39.0449 37.748 38.834 37.2441L36.6543 31.5312H25.1055L23.084 37.2441C22.9199 37.748 22.5625 38 22.0117 38H19.7441ZM35.1777 27.7344L30.9766 16.3086C30.9414 16.1914 30.8711 16.1328 30.7656 16.1328C30.6602 16.1328 30.5898 16.1914 30.5547 16.3086L26.4766 27.7344H35.1777Z" fill="#FFB365"/>
<path d="M9.56641 11.3867L8.82116 10.7199L8.81116 10.7311L8.8015 10.7426L9.56641 11.3867ZM13.3984 37.666L12.6532 36.9992L12.6432 37.0104L12.6335 37.0219L13.3984 37.666ZM10.2852 12.1777C10.2852 12.0968 10.3032 12.0643 10.3313 12.0309L8.8015 10.7426C8.45464 11.1545 8.28516 11.6493 8.28516 12.1777H10.2852ZM10.3116 12.0535C10.3241 12.0396 10.3314 12.0338 10.3326 12.0328C10.3336 12.0321 10.3296 12.0352 10.3207 12.0395C10.3115 12.0439 10.3008 12.0476 10.2897 12.0501C10.2788 12.0525 10.2715 12.0527 10.2695 12.0527V10.0527C9.68277 10.0527 9.18712 10.3109 8.82116 10.7199L10.3116 12.0535ZM10.2695 12.0527H12.7305V10.0527H10.2695V12.0527ZM12.7305 12.0527C12.7286 12.0527 12.72 12.0525 12.7068 12.0495C12.6933 12.0465 12.6792 12.0416 12.666 12.0352C12.6377 12.0214 12.6343 12.0109 12.6511 12.0309L14.1809 10.7426C13.8207 10.3148 13.3208 10.0527 12.7305 10.0527V12.0527ZM12.6511 12.0309C12.6792 12.0643 12.6973 12.0968 12.6973 12.1777H14.6973C14.6973 11.6493 14.5278 11.1545 14.1809 10.7426L12.6511 12.0309ZM12.6973 12.1777V36.875H14.6973V12.1777H12.6973ZM12.6973 36.875C12.6973 36.939 12.6848 36.9639 12.6532 36.9992L14.1437 38.3328C14.5105 37.9228 14.6973 37.4204 14.6973 36.875H12.6973ZM12.6335 37.0219C12.6167 37.0418 12.6202 37.0313 12.6485 37.0175C12.6616 37.0111 12.6757 37.0062 12.6892 37.0032C12.7025 37.0002 12.711 37 12.7129 37V39C13.3032 39 13.8031 38.7379 14.1633 38.3102L12.6335 37.0219ZM12.7129 37H10.252V39H12.7129V37ZM10.252 37C10.2538 37 10.2624 37.0002 10.2756 37.0032C10.2891 37.0062 10.3032 37.0111 10.3164 37.0175C10.3447 37.0313 10.3481 37.0418 10.3313 37.0219L8.8015 38.3102C9.16173 38.7379 9.66165 39 10.252 39V37ZM10.3313 37.0219C10.3032 36.9885 10.2852 36.9559 10.2852 36.875H8.28516C8.28516 37.4034 8.45464 37.8983 8.8015 38.3102L10.3313 37.0219ZM10.2852 36.875V12.1777H8.28516V36.875H10.2852ZM18.9707 37.6836L18.1858 38.3032L18.194 38.3136L18.2025 38.3238L18.9707 37.6836ZM18.7598 36.7344L19.6961 37.0855L19.6971 37.0829L18.7598 36.7344ZM27.6367 12.8633L26.7025 12.5064L26.6994 12.5147L27.6367 12.8633ZM29.5527 11.1055L29.4381 10.1121L29.4228 10.1138L29.4076 10.1161L29.5527 11.1055ZM32.5938 11.3516L32.0465 12.1885L32.0569 12.1953L32.0674 12.2018L32.5938 11.3516ZM33.7363 12.8105L34.6652 12.4402L34.6637 12.4364L33.7363 12.8105ZM43.2812 36.752L44.2176 36.4008L44.214 36.3912L44.2101 36.3816L43.2812 36.752ZM38.834 37.2441L37.8997 37.6006L37.9054 37.6155L37.9115 37.6303L38.834 37.2441ZM36.6543 31.5312L37.5886 31.1748L37.3431 30.5312H36.6543V31.5312ZM25.1055 31.5312V30.5312H24.3986L24.1627 31.1977L25.1055 31.5312ZM23.084 37.2441L22.1413 36.9106L22.137 36.9225L22.1331 36.9346L23.084 37.2441ZM35.1777 27.7344V28.7344H36.6109L36.1163 27.3893L35.1777 27.7344ZM30.9766 16.3086L30.0187 16.5959L30.0275 16.6251L30.038 16.6537L30.9766 16.3086ZM30.5547 16.3086L31.4965 16.6447L31.5051 16.6205L31.5125 16.5959L30.5547 16.3086ZM26.4766 27.7344L25.5348 27.3982L25.0579 28.7344H26.4766V27.7344ZM19.7441 37C19.6763 37 19.66 36.9894 19.6745 36.9954C19.682 36.9984 19.6939 37.0044 19.7074 37.0142C19.7209 37.0241 19.7316 37.0346 19.7389 37.0434L18.2025 38.3238C18.6126 38.8159 19.1846 39 19.7441 39V37ZM19.7556 37.0639C19.7285 37.0297 19.7095 37.0026 19.6965 36.9824C19.6902 36.9725 19.6856 36.9649 19.6826 36.9595C19.6796 36.9542 19.6784 36.9515 19.6784 36.9515C19.6784 36.9516 19.68 36.9548 19.6823 36.9613C19.6847 36.9677 19.6881 36.9778 19.6917 36.9916C19.6987 37.0187 19.707 37.0631 19.707 37.1211H17.707C17.707 37.623 17.9753 38.0366 18.1858 38.3032L19.7556 37.0639ZM19.707 37.1211C19.707 37.0978 19.7077 37.079 19.7085 37.0645C19.7094 37.0499 19.7105 37.0408 19.711 37.0365C19.7116 37.0321 19.7116 37.0342 19.7098 37.0417C19.708 37.0492 19.704 37.0644 19.6961 37.0855L17.8234 36.3833C17.7278 36.6382 17.707 36.9037 17.707 37.1211H19.707ZM19.6971 37.0829L28.574 13.2118L26.6994 12.5147L17.8225 36.3858L19.6971 37.0829ZM28.5709 13.2201C28.8789 12.4137 29.273 12.1572 29.6978 12.0949L29.4076 10.1161C28.0746 10.3116 27.1914 11.2269 26.7026 12.5064L28.5709 13.2201ZM29.6674 12.0989C29.9229 12.0694 30.2459 12.0527 30.6426 12.0527V10.0527C30.1955 10.0527 29.792 10.0712 29.4381 10.1121L29.6674 12.0989ZM30.6426 12.0527H30.9414V10.0527H30.6426V12.0527ZM30.9414 12.0527C31.303 12.0527 31.5764 12.0757 31.7742 12.1115C31.9814 12.149 32.0499 12.1907 32.0465 12.1885L33.141 10.5146C32.569 10.1406 31.7505 10.0527 30.9414 10.0527V12.0527ZM32.0674 12.2018C32.3385 12.3696 32.5993 12.6652 32.809 13.1847L34.6637 12.4364C34.3343 11.62 33.8334 10.9429 33.1201 10.5013L32.0674 12.2018ZM32.8074 13.1809L42.3524 37.1223L44.2101 36.3816L34.6652 12.4402L32.8074 13.1809ZM42.3449 37.1031C42.3359 37.079 42.3316 37.0621 42.3299 37.0548C42.3282 37.0474 42.3284 37.0462 42.3292 37.0527C42.3311 37.0669 42.334 37.0998 42.334 37.1562H44.334C44.334 36.9371 44.3152 36.6612 44.2176 36.4008L42.3449 37.1031ZM42.334 37.1562C42.334 37.0941 42.3474 37.0578 42.3487 37.0545C42.3493 37.0529 42.3474 37.0582 42.3405 37.0706C42.3337 37.0829 42.3227 37.1009 42.3061 37.1245L43.94 38.2779C44.1449 37.9877 44.334 37.605 44.334 37.1562H42.334ZM42.3061 37.1245C42.3245 37.0984 42.3484 37.0725 42.3768 37.0498C42.4049 37.0274 42.4312 37.0132 42.4507 37.005C42.4873 36.9894 42.4867 37 42.4199 37V39C42.9502 39 43.5509 38.829 43.94 38.2779L42.3061 37.1245ZM42.4199 37H39.959V39H42.4199V37ZM39.959 37C39.902 37 39.868 36.9933 39.8512 36.9887C39.8428 36.9864 39.8378 36.9843 39.8353 36.9832C39.8329 36.9821 39.8317 36.9814 39.8311 36.981C39.8311 36.981 39.8249 36.9772 39.8133 36.9622C39.8008 36.9461 39.78 36.9143 39.7564 36.858L37.9115 37.6303C38.0766 38.0245 38.3346 38.385 38.7157 38.6411C39.0978 38.8978 39.5299 39 39.959 39V37ZM39.7683 36.8877L37.5886 31.1748L35.72 31.8877L37.8997 37.6006L39.7683 36.8877ZM36.6543 30.5312H25.1055V32.5312H36.6543V30.5312ZM24.1627 31.1977L22.1413 36.9106L24.0267 37.5777L26.0482 31.8648L24.1627 31.1977ZM22.1331 36.9346C22.1175 36.9825 22.1042 37.0031 22.1016 37.0069C22.1 37.0093 22.1049 37.002 22.1167 36.9937C22.1282 36.9856 22.1328 36.9859 22.1212 36.9892C22.108 36.9928 22.0739 37 22.0117 37V39C22.4396 39 22.8825 38.9009 23.269 38.6284C23.659 38.3535 23.9005 37.9664 24.0349 37.5537L22.1331 36.9346ZM22.0117 37H19.7441V39H22.0117V37ZM36.1163 27.3893L31.9151 15.9635L30.038 16.6537L34.2392 28.0795L36.1163 27.3893ZM31.9344 16.0212C31.879 15.8366 31.7666 15.5993 31.5376 15.4085C31.2959 15.207 31.0147 15.1328 30.7656 15.1328V17.1328C30.622 17.1328 30.4288 17.0879 30.2573 16.945C30.0987 16.8128 30.039 16.6634 30.0187 16.5959L31.9344 16.0212ZM30.7656 15.1328C30.5166 15.1328 30.2354 15.207 29.9936 15.4085C29.7647 15.5993 29.6523 15.8366 29.5969 16.0212L31.5125 16.5959C31.4923 16.6634 31.4326 16.8128 31.274 16.945C31.1025 17.0879 30.9092 17.1328 30.7656 17.1328V15.1328ZM29.6129 15.9724L25.5348 27.3982L27.4184 28.0705L31.4965 16.6447L29.6129 15.9724ZM26.4766 28.7344H35.1777V26.7344H26.4766V28.7344Z" fill="#FFB365" mask="url(#path-1-outside-1_401_53)"/>
<rect x="2.5" y="2.5" width="45" height="45" stroke="#FFB365" stroke-width="5"/>
</svg>
