<svg width="50" height="50" viewBox="0 0 50 50" fill="none" xmlns="http://www.w3.org/2000/svg">
<rect x="2" y="2" width="46" height="46" stroke="#4DA8DA" stroke-width="4"/>
<path d="M25.4583 36.6667C25.7917 36.6389 26.0767 36.5067 26.3133 36.27C26.55 36.0333 26.6678 35.7489 26.6667 35.4167C26.6667 35.0278 26.5417 34.7156 26.2917 34.48C26.0417 34.2445 25.7222 34.14 25.3333 34.1667C24.1944 34.25 22.9861 33.9378 21.7083 33.23C20.4306 32.5222 19.625 31.2372 19.2917 29.375C19.2361 29.0695 19.0906 28.8195 18.855 28.625C18.6194 28.4306 18.3483 28.3333 18.0417 28.3333C17.6528 28.3333 17.3333 28.4795 17.0833 28.7717C16.8333 29.0639 16.75 29.4039 16.8333 29.7917C17.3056 32.3195 18.4167 34.125 20.1667 35.2083C21.9167 36.2917 23.6806 36.7778 25.4583 36.6667ZM25 41.6667C21.1944 41.6667 18.0211 40.3611 15.48 37.75C12.9389 35.1389 11.6678 31.8889 11.6667 28C11.6667 25.2222 12.7711 22.2017 14.98 18.9383C17.1889 15.675 20.5289 12.14 25 8.33334C29.4722 12.1389 32.8128 15.6739 35.0217 18.9383C37.2306 22.2028 38.3344 25.2233 38.3333 28C38.3333 31.8889 37.0628 35.1389 34.5217 37.75C31.9806 40.3611 28.8067 41.6667 25 41.6667Z" fill="#4DA8DA"/>
</svg>
